<svg id="etdt4ase4u51" xmlns="http://www.w3.org/2000/svg" xmlns:xlink="http://www.w3.org/1999/xlink" viewBox="0 0 511.999000 511.999000" shape-rendering="geometricPrecision" text-rendering="geometricPrecision" width="511.999000" height="511.999000"><path id="etdt4ase4u52" d="M412.417000,226.276000C411.413000,226.276000,410.422000,226.300000,409.443000,226.349000C370.960000,227.903000,340.249000,259.593000,340.249000,298.443000C340.249000,332.152000,363.370000,360.476000,394.632000,368.395000C400.311000,369.839000,406.272000,370.610000,412.417000,370.610000C452.271000,370.610000,484.585000,338.296000,484.585000,298.442000C484.585000,258.588000,452.270000,226.276000,412.417000,226.276000ZM412.417000,336.952000C410.275000,336.952000,408.170000,336.781000,406.125000,336.438000C387.851000,333.439000,373.909000,317.576000,373.909000,298.445000C373.909000,278.175000,389.564000,261.565000,409.442000,260.048000C410.421000,259.975000,411.412000,259.938000,412.416000,259.938000C433.689000,259.938000,450.923000,277.172000,450.923000,298.445000C450.924000,319.718000,433.690000,336.952000,412.417000,336.952000Z" fill="rgb(254,230,204)" stroke="none" stroke-width="1"/><path id="etdt4ase4u53" d="M373.909000,298.444000C373.909000,317.575000,387.850000,333.439000,406.125000,336.437000C403.616000,347.673000,399.723000,358.396000,394.632000,368.396000C363.371000,360.477000,340.249000,332.153000,340.249000,298.444000C340.249000,259.594000,370.959000,227.904000,409.443000,226.350000L409.443000,260.047000C389.564000,261.565000,373.909000,278.175000,373.909000,298.444000Z" fill="rgb(252,206,153)" stroke="none" stroke-width="1"/><path id="etdt4ase4u54" d="M390.813000,215.754000L390.813000,304.853000C390.813000,380.503000,330.215000,443.025000,254.567000,443.560000C238.531000,443.673000,223.124000,441.034000,208.789000,436.085000C162.264000,420.038000,127.074000,379.682000,118.408000,330.196000C117.049000,322.448000,116.339000,314.480000,116.339000,306.340000L116.339000,215.755000C116.339000,210.284000,120.774000,205.848000,126.246000,205.848000L380.905000,205.848000C386.377000,205.848000,390.813000,210.283000,390.813000,215.754000Z" fill="rgb(254,230,204)" stroke="none" stroke-width="1"/><g id="etdt4ase4u55"><path id="etdt4ase4u56" d="M214.396000,427.406000C212.817000,430.429000,210.932000,433.330000,208.790000,436.084000C162.265000,420.037000,127.075000,379.681000,118.409000,330.195000C121.800000,331.431000,125.031000,333.059000,128.017000,335.054000C135.361000,339.962000,141.028000,346.939000,144.676000,355.262000C149.144000,354.564000,153.624000,354.197000,158.054000,354.197000C189.156000,354.197000,214.310000,371.456000,219.218000,396.156000C221.299000,406.574000,219.622000,417.382000,214.396000,427.406000Z" fill="rgb(252,206,153)" stroke="none" stroke-width="1"/><path id="etdt4ase4u57" d="M390.813000,278.052000L390.813000,306.339000C390.813000,382.130000,329.367000,443.563000,253.576000,443.563000C177.785000,443.563000,116.340000,382.130000,116.340000,306.339000L116.340000,278.052000C116.340000,353.843000,177.786000,415.288000,253.576000,415.288000C329.366000,415.288000,390.813000,353.843000,390.813000,278.052000Z" fill="rgb(252,206,153)" stroke="none" stroke-width="1"/><rect id="etdt4ase4u58" width="219.530000" height="36.100000" rx="0" ry="0" transform="matrix(1 0 0 1 143.80900000000000 468.39999999999998)" fill="rgb(252,206,153)" stroke="none" stroke-width="1"/></g><path id="etdt4ase4u59" d="M198.116000,418.912000C191.665000,431.262000,177.088000,441.605000,158.776000,445.240000C131.419000,450.675000,106.070000,439.120000,102.153000,419.413000C102.116000,419.242000,102.092000,419.082000,102.067000,418.911000C98.554000,399.376000,117.477000,379.290000,144.589000,373.904000C171.946000,368.469000,197.295000,380.024000,201.212000,399.731000C202.510000,406.243000,201.299000,412.816000,198.116000,418.912000Z" fill="rgb(226,120,14)" stroke="none" stroke-width="1"/><g id="etdt4ase4u510"><path id="etdt4ase4u511" d="M198.116000,418.912000C191.665000,431.262000,177.088000,441.605000,158.776000,445.240000C131.419000,450.675000,106.070000,439.120000,102.153000,419.413000C102.116000,419.242000,102.092000,419.082000,102.067000,418.911000L198.116000,418.911000L198.116000,418.912000Z" fill="rgb(168,80,0)" stroke="none" stroke-width="1"/><path id="etdt4ase4u512" d="M158.772000,445.238000C131.424000,450.674000,106.076000,439.115000,102.160000,419.415000C101.635000,416.774000,101.518000,414.114000,101.795000,411.488000C109.850000,426.522000,132.038000,434.554000,155.713000,429.848000C179.387000,425.142000,196.817000,409.235000,198.510000,392.263000C199.770000,394.583000,200.679000,397.086000,201.204000,399.727000C205.120000,419.426000,186.120000,439.801000,158.772000,445.238000Z" fill="rgb(168,80,0)" stroke="none" stroke-width="1"/></g><path id="etdt4ase4u513" d="M119.987000,412.498000C118.469000,414.762000,116.854000,416.904000,115.152000,418.912000C99.472000,437.395000,76.755000,444.347000,61.699000,434.273000C56.289000,430.662000,52.531000,425.301000,50.438000,418.912000C46.093000,405.582000,49.043000,387.773000,59.520000,372.093000C75.016000,348.898000,101.112000,339.155000,117.808000,350.318000C134.504000,361.469000,135.483000,389.315000,119.987000,412.498000Z" fill="rgb(226,120,14)" stroke="none" stroke-width="1"/><g id="etdt4ase4u514"><path id="etdt4ase4u515" d="M115.152000,418.912000C99.472000,437.395000,76.755000,444.347000,61.699000,434.273000C56.289000,430.662000,52.531000,425.301000,50.438000,418.912000L115.152000,418.912000Z" fill="rgb(168,80,0)" stroke="none" stroke-width="1"/><path id="etdt4ase4u516" d="M119.987000,412.503000C104.493000,435.685000,78.396000,445.435000,61.697000,434.274000C59.458000,432.778000,57.495000,430.979000,55.833000,428.927000C72.160000,433.862000,93.528000,423.852000,106.941000,403.784000C120.354000,383.716000,121.430000,360.144000,110.626000,346.946000C113.158000,347.696000,115.570000,348.822000,117.809000,350.319000C134.509000,361.479000,135.481000,389.321000,119.987000,412.503000Z" fill="rgb(168,80,0)" stroke="none" stroke-width="1"/></g><polygon id="etdt4ase4u517" points="27.415000,436.056000 27.415000,453.988000 143.415000,476.020000 363.737000,476.020000 479.738000,453.988000 479.738000,436.056000" fill="rgb(254,230,204)" stroke="none" stroke-width="1"/><path id="etdt4ase4u518" d="M479.740000,428.551000L407.320000,428.551000C403.177000,428.551000,399.820000,431.909000,399.820000,436.051000C399.820000,440.193000,403.177000,443.551000,407.320000,443.551000L472.240000,443.551000L472.240000,447.782000L363.034000,468.521000L144.126000,468.521000L34.920000,447.782000L34.920000,443.551000L64.740000,443.551000C64.752000,443.551000,64.764000,443.553000,64.775000,443.553000C64.784000,443.553000,64.794000,443.551000,64.803000,443.551000L91.825000,443.551000C91.834000,443.551000,91.842000,443.553000,91.851000,443.553000C91.865000,443.553000,91.880000,443.551000,91.894000,443.551000L181.811000,443.551000C181.816000,443.551000,181.821000,443.552000,181.827000,443.552000C181.832000,443.552000,181.836000,443.551000,181.841000,443.551000L208.636000,443.551000C208.644000,443.551000,208.652000,443.553000,208.660000,443.553000C208.668000,443.553000,208.677000,443.551000,208.685000,443.551000L298.475000,443.551000C298.484000,443.551000,298.492000,443.553000,298.500000,443.553000C298.508000,443.553000,298.516000,443.551000,298.523000,443.551000L379.469000,443.551000C383.612000,443.551000,386.969000,440.193000,386.969000,436.051000C386.969000,431.909000,383.612000,428.551000,379.469000,428.551000L331.093000,428.551000C340.050000,422.859000,348.409000,416.193000,355.924000,408.683000C366.771000,397.831000,375.676000,385.557000,382.482000,372.287000C391.966000,376.150000,402.008000,378.111000,412.419000,378.111000C456.344000,378.111000,492.079000,342.371000,492.079000,298.441000C492.079000,254.516000,456.344000,218.781000,412.419000,218.781000C407.659000,218.781000,402.943000,219.212000,398.309000,220.043000L398.309000,215.752000C398.309000,206.152000,390.499000,198.342000,380.900000,198.342000L345.429000,198.342000C341.286000,198.342000,337.929000,201.700000,337.929000,205.842000C337.929000,209.984000,341.286000,213.342000,345.429000,213.342000L380.900000,213.342000C382.228000,213.342000,383.309000,214.423000,383.309000,215.752000L383.309000,228.502000L123.839000,228.502000L123.839000,215.752000C123.839000,214.423000,124.920000,213.342000,126.249000,213.342000L317.569000,213.342000C321.712000,213.342000,325.069000,209.984000,325.069000,205.842000C325.069000,201.700000,321.712000,198.342000,317.569000,198.342000L126.249000,198.342000C116.649000,198.342000,108.839000,206.152000,108.839000,215.752000L108.839000,306.332000C108.839000,317.644000,110.162000,328.859000,112.740000,339.752000C100.533000,336.112000,85.987000,338.972000,72.715000,348.053000C69.296000,350.392000,68.420000,355.059000,70.759000,358.478000C73.099000,361.896000,77.767000,362.771000,81.185000,360.433000C89.883000,354.482000,99.011000,352.146000,106.559000,353.658000L79.241000,394.530000C76.939000,397.974000,77.865000,402.632000,81.308000,404.933000C82.588000,405.789000,84.037000,406.199000,85.469000,406.199000C87.890000,406.199000,90.266000,405.029000,91.711000,402.866000L119.037000,361.980000C121.871000,366.187000,123.424000,371.692000,123.497000,378.108000C123.497000,378.111000,123.497000,378.113000,123.497000,378.116000C123.497000,378.130000,123.498000,378.144000,123.498000,378.158000C123.599000,388.066000,120.137000,398.783000,113.752000,408.335000C110.112000,413.782000,105.808000,418.453000,100.934000,422.237000C97.555000,424.883000,94.005000,427,90.368000,428.551000L66.675000,428.551000C66.404000,428.389000,66.134000,428.226000,65.865000,428.044000C53.378000,419.704000,52.588000,398.135000,64.066000,378.940000C66.192000,375.385000,65.034000,370.779000,61.479000,368.653000C57.926000,366.529000,53.319000,367.685000,51.193000,371.241000C43.876000,383.476000,40.302000,397.108000,41.130000,409.627000C41.600000,416.730000,43.459000,423.131000,46.519000,428.550000L27.420000,428.550000C23.277000,428.550000,19.920000,431.908000,19.920000,436.050000L19.920000,453.990000C19.920000,457.593000,22.482000,460.686000,26.021000,461.358000L136.311000,482.303000L136.311000,504.499000C136.311000,508.641000,139.668000,511.999000,143.811000,511.999000L363.339000,511.999000C367.482000,511.999000,370.839000,508.641000,370.839000,504.499000L370.839000,482.305000L481.139000,461.358000C484.678000,460.686000,487.240000,457.592000,487.240000,453.990000L487.240000,436.050000C487.240000,431.909000,483.882000,428.551000,479.740000,428.551000ZM398.309000,270.846000C402.655000,268.615000,407.461000,267.431000,412.419000,267.431000C429.518000,267.431000,443.429000,281.342000,443.429000,298.441000C443.429000,315.540000,429.518000,329.451000,412.419000,329.451000C406.970000,329.451000,401.725000,328.036000,397.066000,325.368000C397.884000,319.106000,398.308000,312.751000,398.308000,306.330000L398.308000,270.846000L398.309000,270.846000ZM412.420000,233.781000C448.073000,233.781000,477.080000,262.787000,477.080000,298.441000C477.080000,334.100000,448.073000,363.111000,412.420000,363.111000C404.151000,363.111000,396.180000,361.570000,388.637000,358.573000C390.884000,352.758000,392.743000,346.790000,394.218000,340.705000C399.920000,343.167000,406.080000,344.452000,412.419000,344.452000C437.789000,344.452000,458.429000,323.812000,458.429000,298.442000C458.429000,273.072000,437.789000,252.432000,412.419000,252.432000C407.579000,252.432000,402.831000,253.189000,398.309000,254.646000L398.309000,236.079000C398.309000,236.053000,398.313000,236.028000,398.313000,236.002000C398.313000,235.976000,398.309000,235.951000,398.309000,235.925000L398.309000,235.336000C402.913000,234.308000,407.639000,233.781000,412.420000,233.781000ZM383.309000,243.501000L383.309000,266.588000C383.309000,266.596000,383.309000,266.605000,383.309000,266.613000L383.309000,306.331000C383.309000,340.985000,369.816000,373.568000,345.318000,398.076000C331.745000,411.640000,315.121000,422.152000,297.185000,428.551000L209.984000,428.551000C207.565000,427.690000,205.158000,426.764000,202.781000,425.751000C208.284000,417.099000,210.381000,407.473000,208.570000,398.299000C208.568000,398.287000,208.567000,398.276000,208.565000,398.264000C208.562000,398.250000,208.557000,398.236000,208.555000,398.222000C206.164000,386.287000,197.731000,376.467000,184.803000,370.569000C172.693000,365.044000,157.892000,363.614000,143.125000,366.546000C141.782000,366.813000,140.451000,367.118000,139.131000,367.453000C129.120000,348.739000,123.839000,327.735000,123.839000,306.332000L123.839000,243.502000L383.309000,243.502000L383.309000,243.501000ZM126.225000,416.669000C133.168000,406.281000,137.358000,394.632000,138.294000,383.344000C140.810000,382.496000,143.398000,381.785000,146.049000,381.257000C165.132000,377.469000,183.532000,383.211000,190.869000,394.135000L142.669000,403.716000C138.606000,404.524000,135.967000,408.471000,136.774000,412.534000C137.484000,416.103000,140.617000,418.573000,144.123000,418.573000C144.607000,418.573000,145.100000,418.526000,145.593000,418.427000L193.823000,408.839000C192.861000,413.773000,190.111000,418.719000,185.706000,423.263000C185.694000,423.275000,185.683000,423.288000,185.672000,423.300000C183.835000,425.185000,181.758000,426.940000,179.496000,428.549000L116.435000,428.549000C120.030000,425.004000,123.309000,421.033000,126.225000,416.669000ZM355.839000,497.001000L151.310000,497.001000L151.310000,483.521000L355.839000,483.521000L355.839000,497.001000Z" fill="rgb(0,0,0)" stroke="none" stroke-width="1"/><path id="etdt4ase4u519" d="M273.195000,149.887000C269.689000,152.093000,268.635000,156.723000,270.841000,160.229000C272.266000,162.495000,274.703000,163.736000,277.195000,163.736000C278.560000,163.736000,279.942000,163.363000,281.182000,162.583000C296.254000,153.100000,305.252000,136.826000,305.252000,119.052000C305.252000,104.771000,299.434000,91.468000,289.335000,81.868000C299.435000,72.268000,305.252000,58.965000,305.252000,44.685000C305.252000,26.910000,296.254000,10.637000,281.182000,1.153000C277.677000,-1.053000,273.044000,0.001000,270.840000,3.507000C268.634000,7.013000,269.688000,11.643000,273.194000,13.849000C283.876000,20.570000,290.253000,32.097000,290.253000,44.684000C290.253000,57.271000,283.876000,68.798000,273.194000,75.519000C268.609000,78.395000,268.609000,85.329000,273.194000,88.215000C283.876000,94.936000,290.253000,106.463000,290.253000,119.050000C290.254000,131.638000,283.877000,143.166000,273.195000,149.887000C269.689000,152.093000,283.877000,143.166000,273.195000,149.887000Z" fill="rgb(0,0,0)" stroke="none" stroke-width="1"/><path id="etdt4ase4u520" d="M325.977000,149.887000C322.471000,152.093000,321.417000,156.723000,323.623000,160.229000C325.048000,162.495000,327.485000,163.736000,329.977000,163.736000C331.342000,163.736000,332.724000,163.363000,333.964000,162.583000C349.035000,153.100000,358.033000,136.826000,358.033000,119.052000C358.033000,101.278000,349.035000,85.004000,333.964000,75.521000C330.459000,73.315000,325.827000,74.368000,323.622000,77.875000C321.416000,81.380000,322.470000,86.011000,325.976000,88.217000C336.657000,94.938000,343.034000,106.466000,343.034000,119.053000C343.035000,131.638000,336.658000,143.166000,325.977000,149.887000Z" fill="rgb(0,0,0)" stroke="none" stroke-width="1"/><path id="etdt4ase4u521" d="M216.092000,149.887000C212.586000,152.093000,211.532000,156.723000,213.738000,160.229000C215.163000,162.495000,217.600000,163.736000,220.092000,163.736000C221.457000,163.736000,222.839000,163.363000,224.079000,162.583000C239.151000,153.100000,248.149000,136.826000,248.149000,119.052000C248.149000,101.277000,239.151000,85.004000,224.079000,75.520000C220.574000,73.314000,215.941000,74.368000,213.737000,77.874000C211.531000,81.380000,212.585000,86.010000,216.091000,88.216000C226.773000,94.937000,233.150000,106.464000,233.150000,119.051000C233.151000,131.638000,226.774000,143.166000,216.092000,149.887000Z" fill="rgb(0,0,0)" stroke="none" stroke-width="1"/><script><![CDATA[!function(t,n){"object"==typeof exports&&"undefined"!=typeof module?module.exports=n():"function"==typeof define&&define.amd?define(n):(t=t||self).__SVGATOR_PLAYER__=n()}(this,(function(){"use strict";function t(n){return(t="function"==typeof Symbol&&"symbol"==typeof Symbol.iterator?function(t){return typeof t}:function(t){return t&&"function"==typeof Symbol&&t.constructor===Symbol&&t!==Symbol.prototype?"symbol":typeof t})(n)}function n(t,n){if(!(t instanceof n))throw new TypeError("Cannot call a class as a function")}function r(t,n){for(var r=0;r<n.length;r++){var e=n[r];e.enumerable=e.enumerable||!1,e.configurable=!0,"value"in e&&(e.writable=!0),Object.defineProperty(t,e.key,e)}}function e(t,n,e){return n&&r(t.prototype,n),e&&r(t,e),t}var i=1e-5,u=Math.abs;function o(t){return t}function a(t,n,r){var e=1-r;return 3*r*e*(t*e+n*r)+r*r*r}function l(){var t=arguments.length>0&&void 0!==arguments[0]?arguments[0]:0,n=arguments.length>1&&void 0!==arguments[1]?arguments[1]:0,r=arguments.length>2&&void 0!==arguments[2]?arguments[2]:1,e=arguments.length>3&&void 0!==arguments[3]?arguments[3]:1;return t<0||t>1||r<0||r>1?null:u(t-n)<=i&&u(r-e)<=i?o:function(o){if(o<=0)return t>0?o*n/t:0===n&&r>0?o*e/r:0;if(o>=1)return r<1?1+(o-1)*(e-1)/(r-1):1===r&&t<1?1+(o-1)*(n-1)/(t-1):1;for(var l,f=0,s=1;f<s;){var c=a(t,r,l=(f+s)/2);if(u(o-c)<i)break;c<o?f=l:s=l}return a(n,e,l)}}function f(){return 1}function s(t){return 1===t?1:0}function c(){var t=arguments.length>0&&void 0!==arguments[0]?arguments[0]:1,n=arguments.length>1&&void 0!==arguments[1]?arguments[1]:0;if(1===t){if(0===n)return s;if(1===n)return f}var r=1/t;return function(t){return t>=1?1:(t+=n*r)-t%r}}function v(t){var n=arguments.length>1&&void 0!==arguments[1]?arguments[1]:2;if(Number.isInteger(t))return t;var r=Math.pow(10,n);return Math.round(t*r)/r}var h=Math.PI/180;function y(t,n,r){return t>=.5?r:n}function d(t,n,r){return 0===t||n===r?n:t*(r-n)+n}function g(t,n,r){var e=d(t,n,r);return e<=0?0:e}function m(t,n,r){return 0===t?n:1===t?r:{x:d(t,n.x,r.x),y:d(t,n.y,r.y)}}function p(t,n,r){return 0===t?n:1===t?r:{x:g(t,n.x,r.x),y:g(t,n.y,r.y)}}function b(t,n,r){var e=function(t,n,r){return Math.round(d(t,n,r))}(t,n,r);return e<=0?0:e>=255?255:e}function w(t,n,r){return 0===t?n:1===t?r:{r:b(t,n.r,r.r),g:b(t,n.g,r.g),b:b(t,n.b,r.b),a:d(t,null==n.a?1:n.a,null==r.a?1:r.a)}}function A(t,n,r){if(0===t)return n;if(1===t)return r;var e=n.length;if(e!==r.length)return y(t,n,r);for(var i=[],u=0;u<e;u++)i.push(w(t,n[u],r[u]));return i}function x(t,n,r){var e=n.length;if(e!==r.length)return y(t,n,r);for(var i=new Array(e),u=0;u<e;u++)i[u]=d(t,n[u],r[u]);return i}function k(t,n){for(var r=[],e=0;e<t;e++)r.push(n);return r}function S(t,n){if(--n<=0)return t;var r=(t=Object.assign([],t)).length;do{for(var e=0;e<r;e++)t.push(t[e])}while(--n>0);return t}var _=6,M=/\.0+$/g;function I(t){return Number.isInteger(t)?t+"":t.toFixed(_).replace(M,"")}function E(t){var n=arguments.length>1&&void 0!==arguments[1]?arguments[1]:" ";return t&&t.length?t.map(I).join(n):""}function F(t){return I(t.x)+","+I(t.y)}function B(t){return t?null==t.a||t.a>=1?"rgb("+t.r+","+t.g+","+t.b+")":"rgba("+t.r+","+t.g+","+t.b+","+t.a+")":"transparent"}var j={f:null,i:p,u:function(t,n){return function(r){var e=n(r);t.setAttribute("rx",I(e.x)),t.setAttribute("ry",I(e.y))}}},q={f:null,i:function(t,n,r){return 0===t?n:1===t?r:{width:g(t,n.width,r.width),height:g(t,n.height,r.height)}},u:function(t,n){return function(r){var e=n(r);t.setAttribute("width",I(e.width)),t.setAttribute("height",I(e.height))}}},P=Math.sin,O=Math.cos,z=Math.acos,L=Math.asin,C=Math.tan,R=Math.atan2,T=Math.PI/180,V=180/Math.PI,D=Math.sqrt,N=function(){function t(){var r=arguments.length>0&&void 0!==arguments[0]?arguments[0]:1,e=arguments.length>1&&void 0!==arguments[1]?arguments[1]:0,i=arguments.length>2&&void 0!==arguments[2]?arguments[2]:0,u=arguments.length>3&&void 0!==arguments[3]?arguments[3]:1,o=arguments.length>4&&void 0!==arguments[4]?arguments[4]:0,a=arguments.length>5&&void 0!==arguments[5]?arguments[5]:0;n(this,t),this.m=[r,e,i,u,o,a],this.i=null,this.w=null,this.s=null}return e(t,[{key:"point",value:function(t,n){var r=this.m;return{x:r[0]*t+r[2]*n+r[4],y:r[1]*t+r[3]*n+r[5]}}},{key:"translateSelf",value:function(){var t=arguments.length>0&&void 0!==arguments[0]?arguments[0]:0,n=arguments.length>1&&void 0!==arguments[1]?arguments[1]:0;if(!t&&!n)return this;var r=this.m;return r[4]+=r[0]*t+r[2]*n,r[5]+=r[1]*t+r[3]*n,this.w=this.s=this.i=null,this}},{key:"rotateSelf",value:function(){var t=arguments.length>0&&void 0!==arguments[0]?arguments[0]:0;if(t%=360){var n=P(t*=T),r=O(t),e=this.m,i=e[0],u=e[1];e[0]=i*r+e[2]*n,e[1]=u*r+e[3]*n,e[2]=e[2]*r-i*n,e[3]=e[3]*r-u*n,this.w=this.s=this.i=null}return this}},{key:"scaleSelf",value:function(){var t=arguments.length>0&&void 0!==arguments[0]?arguments[0]:1,n=arguments.length>1&&void 0!==arguments[1]?arguments[1]:1;if(1!==t||1!==n){var r=this.m;r[0]*=t,r[1]*=t,r[2]*=n,r[3]*=n,this.w=this.s=this.i=null}return this}},{key:"skewSelf",value:function(t,n){if(n%=360,(t%=360)||n){var r=this.m,e=r[0],i=r[1],u=r[2],o=r[3];t&&(t=C(t*T),r[2]+=e*t,r[3]+=i*t),n&&(n=C(n*T),r[0]+=u*n,r[1]+=o*n),this.w=this.s=this.i=null}return this}},{key:"resetSelf",value:function(){var t=arguments.length>0&&void 0!==arguments[0]?arguments[0]:1,n=arguments.length>1&&void 0!==arguments[1]?arguments[1]:0,r=arguments.length>2&&void 0!==arguments[2]?arguments[2]:0,e=arguments.length>3&&void 0!==arguments[3]?arguments[3]:1,i=arguments.length>4&&void 0!==arguments[4]?arguments[4]:0,u=arguments.length>5&&void 0!==arguments[5]?arguments[5]:0,o=this.m;return o[0]=t,o[1]=n,o[2]=r,o[3]=e,o[4]=i,o[5]=u,this.w=this.s=this.i=null,this}},{key:"recomposeSelf",value:function(){var t=arguments.length>0&&void 0!==arguments[0]?arguments[0]:null,n=arguments.length>1&&void 0!==arguments[1]?arguments[1]:null,r=arguments.length>2&&void 0!==arguments[2]?arguments[2]:null,e=arguments.length>3&&void 0!==arguments[3]?arguments[3]:null,i=arguments.length>4&&void 0!==arguments[4]?arguments[4]:null;return this.isIdentity||this.resetSelf(),t&&(t.x||t.y)&&this.translateSelf(t.x,t.y),n&&this.rotateSelf(n),r&&(r.x&&this.skewSelf(r.x,0),r.y&&this.skewSelf(0,r.y)),!e||1===e.x&&1===e.y||this.scaleSelf(e.x,e.y),i&&(i.x||i.y)&&this.translateSelf(i.x,i.y),this}},{key:"decompose",value:function(){var t=arguments.length>0&&void 0!==arguments[0]?arguments[0]:0,n=arguments.length>1&&void 0!==arguments[1]?arguments[1]:0,r=this.m,e=r[0]*r[0]+r[1]*r[1],i=[[r[0],r[1]],[r[2],r[3]]],u=D(e);if(0===u)return{origin:{x:r[4],y:r[5]},translate:{x:t,y:n},scale:{x:0,y:0},skew:{x:0,y:0},rotate:0};i[0][0]/=u,i[0][1]/=u;var o=r[0]*r[3]-r[1]*r[2]<0;o&&(u=-u);var a=i[0][0]*i[1][0]+i[0][1]*i[1][1];i[1][0]-=i[0][0]*a,i[1][1]-=i[0][1]*a;var l=D(i[1][0]*i[1][0]+i[1][1]*i[1][1]);if(0===l)return{origin:{x:r[4],y:r[5]},translate:{x:t,y:n},scale:{x:u,y:0},skew:{x:0,y:0},rotate:0};i[1][0]/=l,i[1][1]/=l,a/=l;var f=0;return i[1][1]<0?(f=z(i[1][1])*V,i[0][1]<0&&(f=360-f)):f=L(i[0][1])*V,o&&(f=-f),a=R(a,D(i[0][0]*i[0][0]+i[0][1]*i[0][1]))*V,{origin:{x:r[4],y:r[5]},translate:{x:t,y:n},scale:{x:u,y:l},skew:{x:a,y:0},rotate:f}}},{key:"toString",value:function(){return null===this.s&&(this.s="matrix("+this.m.map($).join(" ")+")"),this.s}},{key:"determinant",get:function(){var t=this.m;return t[0]*t[3]-t[1]*t[2]}},{key:"isIdentity",get:function(){if(null===this.i){var t=this.m;this.i=1===t[0]&&0===t[1]&&0===t[2]&&1===t[3]&&0===t[4]&&0===t[5]}return this.i}}]),t}(),G=/\.0+$/;function $(t){return Number.isInteger(t)?t:t.toFixed(14).replace(G,"")}Object.freeze({M:2,L:2,Z:0,H:1,V:1,C:6,Q:4,T:2,S:4,A:7});function H(t,n,r){return t+(n-t)*r}function Q(t,n,r){var e=arguments.length>3&&void 0!==arguments[3]&&arguments[3],i={x:H(t.x,n.x,r),y:H(t.y,n.y,r)};return e&&(i.a=function(t,n){return Math.atan2(n.y-t.y,n.x-t.x)}(t,n)),i}function U(t,n,r,e){var i=1-e;return i*i*t+2*i*e*n+e*e*r}function Y(t,n,r,e){return 2*(1-e)*(n-t)+2*e*(r-n)}function Z(t,n,r,e){var i=arguments.length>4&&void 0!==arguments[4]&&arguments[4],u={x:U(t.x,n.x,r.x,e),y:U(t.y,n.y,r.y,e)};return i&&(u.a=function(t,n,r,e){return Math.atan2(Y(t.y,n.y,r.y,e),Y(t.x,n.x,r.x,e))}(t,n,r,e)),u}function J(t,n,r,e,i){var u=i*i;return i*u*(e-t+3*(n-r))+3*u*(t+r-2*n)+3*i*(n-t)+t}function K(t,n,r,e,i){var u=1-i;return 3*(u*u*(n-t)+2*u*i*(r-n)+i*i*(e-r))}function W(t,n,r,e,i){var u=arguments.length>5&&void 0!==arguments[5]&&arguments[5],o={x:J(t.x,n.x,r.x,e.x,i),y:J(t.y,n.y,r.y,e.y,i)};return u&&(o.a=function(t,n,r,e,i){return Math.atan2(K(t.y,n.y,r.y,e.y,i),K(t.x,n.x,r.x,e.x,i))}(t,n,r,e,i)),o}function X(t,n,r){var e,i=arguments.length>3&&void 0!==arguments[3]&&arguments[3];if(nt(n)){if(null!=(e=r).start&&!nt(e))return Z(n,r.start,r,t,i)}else if(nt(r)){if(n.end)return Z(n,n.end,r,t,i)}else{if(n.end)return r.start?W(n,n.end,r.start,r,t,i):Z(n,n.end,r,t,i);if(r.start)return Z(n,r.start,r,t,i)}return Q(n,r,t,i)}function tt(t,n,r){var e=X(t,n,r,!0);return e.a=function(t){return arguments.length>1&&void 0!==arguments[1]&&arguments[1]?t+Math.PI:t}(e.a)/h,e}function nt(t){return!t.type||"corner"===t.type}var rt=new N;var et={f:function(t){return t?t.join(" "):""},i:function(n,r,e){if(0===n)return r;if(1===n)return e;var i=r.length;if(i!==e.length)return y(n,r,e);for(var u,o=new Array(i),a=0;a<i;a++){if((u=t(r[a]))!==t(e[a]))return y(n,r,e);if("number"===u)o[a]=d(n,r[a],e[a]);else{if(r[a]!==e[a])return y(n,r,e);o[a]=r[a]}}return o}},it={f:null,i:x,u:function(t,n){return function(r){var e=n(r);t.setAttribute("x1",I(e[0])),t.setAttribute("y1",I(e[1])),t.setAttribute("x2",I(e[2])),t.setAttribute("y2",I(e[3]))}}},ut={f:I,i:d},ot={f:I,i:function(t,n,r){var e=d(t,n,r);return e<=0?0:e>=1?1:e}},at={f:E,i:function(t,n,r){var e,i,u,o=n.length,a=r.length;if(o!==a)if(0===o)n=k(o=a,0);else if(0===a)a=o,r=k(o,0);else{var l=(u=(e=o)*(i=a)/function(t,n){for(var r;n;)r=n,n=t%n,t=r;return t||1}(e,i))<0?-u:u;n=S(n,Math.floor(l/o)),r=S(r,Math.floor(l/a)),o=a=l}for(var f=[],s=0;s<o;s++)f.push(v(g(t,n[s],r[s]),6));return f}};function lt(t,n,r,e,i,u,o,a){return n=function(t,n,r){for(var e,i,u,o=t.length-1,a={},l=0;l<=o;l++)(e=t[l]).e&&(e.e=n(e.e)),e.v&&"g"===(i=e.v).t&&i.r&&(u=r.getElementById(i.r))&&(a[i.r]=u.querySelectorAll("stop"));return a}(t,e,a),function(e){var i,u=r(e,t,ft);return u?"c"===u.t?B(u.v):"g"===u.t?(n[u.r]&&function(t,n){for(var r=0,e=t.length;r<e;r++)t[r].setAttribute("stop-color",B(n[r]))}(n[u.r],u.v),(i=u.r)?"url(#"+i+")":"none"):"none":"none"}}function ft(t,n,r){if(0===t)return n;if(1===t)return r;if(n&&r){var e=n.t;if(e===r.t)switch(n.t){case"c":return{t:e,v:w(t,n.v,r.v)};case"g":if(n.r===r.r)return{t:e,v:A(t,n.v,r.v),r:n.r}}}return y(t,n,r)}var st={blur:p,brightness:g,contrast:g,"drop-shadow":function(t,n,r){return 0===t?n:1===t?r:{blur:p(t,n.blur,r.blur),offset:m(t,n.offset,r.offset),color:w(t,n.color,r.color)}},grayscale:g,"hue-rotate":d,invert:g,opacity:g,saturate:g,sepia:g};function ct(t,n,r){if(0===t)return n;if(1===t)return r;var e=n.length;if(e!==r.length)return y(t,n,r);for(var i,u=[],o=0;o<e;o++){if(n[o].type!==r[o].type)return n;if(!(i=st[n[o].type]))return y(t,n,r);u.push({type:n.type,value:i(t,n[o].value,r[o].value)})}return u}var vt={blur:function(t){return t?function(n){t.setAttribute("stdDeviation",F(n))}:null},brightness:function(t,n,r){return(t=yt(r,n))?function(n){n=I(n),t.map((function(t){return t.setAttribute("slope",n)}))}:null},contrast:function(t,n,r){return(t=yt(r,n))?function(n){var r=I((1-n)/2);n=I(n),t.map((function(t){t.setAttribute("slope",n),t.setAttribute("intercept",r)}))}:null},"drop-shadow":function(t,n,r){var e=r.getElementById(n+"-blur");if(!e)return null;var i=r.getElementById(n+"-offset");if(!i)return null;var u=r.getElementById(n+"-flood");return u?function(t){e.setAttribute("stdDeviation",F(t.blur)),i.setAttribute("dx",I(t.offset.x)),i.setAttribute("dy",I(t.offset.y)),u.setAttribute("flood-color",B(t.color))}:null},grayscale:function(t){return t?function(n){t.setAttribute("values",E(function(t){return[.2126+.7874*(t=1-t),.7152-.7152*t,.0722-.0722*t,0,0,.2126-.2126*t,.7152+.2848*t,.0722-.0722*t,0,0,.2126-.2126*t,.7152-.7152*t,.0722+.9278*t,0,0,0,0,0,1,0]}(n)))}:null},"hue-rotate":function(t){return t?function(n){return t.setAttribute("values",I(n))}:null},invert:function(t,n,r){return(t=yt(r,n))?function(n){n=I(n)+" "+I(1-n),t.map((function(t){return t.setAttribute("tableValues",n)}))}:null},opacity:function(t,n,r){return(t=r.getElementById(n+"-A"))?function(n){return t.setAttribute("tableValues","0 "+I(n))}:null},saturate:function(t){return t?function(n){return t.setAttribute("values",I(n))}:null},sepia:function(t){return t?function(n){return t.setAttribute("values",E(function(t){return[.393+.607*(t=1-t),.769-.769*t,.189-.189*t,0,0,.349-.349*t,.686+.314*t,.168-.168*t,0,0,.272-.272*t,.534-.534*t,.131+.869*t,0,0,0,0,0,1,0]}(n)))}:null}};var ht=["R","G","B"];function yt(t,n){var r=ht.map((function(r){return t.getElementById(n+"-"+r)||null}));return-1!==r.indexOf(null)?null:r}var dt={fill:lt,"fill-opacity":ot,stroke:lt,"stroke-opacity":ot,"stroke-width":ut,"stroke-dashoffset":{f:I,i:d},"stroke-dasharray":at,opacity:ot,transform:function(n,r,e,i){if(!(n=function(n,r){if(!n||"object"!==t(n))return null;var e=!1;for(var i in n)n.hasOwnProperty(i)&&(n[i]&&n[i].length?(n[i].forEach((function(t){t.e&&(t.e=r(t.e))})),e=!0):delete n[i]);return e?n:null}(n,i)))return null;var u=function(t,i,u){var o=arguments.length>3&&void 0!==arguments[3]?arguments[3]:null;return n[t]?e(i,n[t],u):r&&r[t]?r[t]:o};return r&&r.a&&n.o?function(t){var r=e(t,n.o,tt);return rt.recomposeSelf(r,u("r",t,d,0)+r.a,u("k",t,m),u("s",t,m),u("t",t,m)).toString()}:function(t){return rt.recomposeSelf(u("o",t,X,null),u("r",t,d,0),u("k",t,m),u("s",t,m),u("t",t,m)).toString()}},"#filter":function(t,n,r,e,i,u,o,a){if(!n.items||!t||!t.length)return null;var l=function(t,n){var r=(t=t.map((function(t){return t&&vt[t[0]]?(n.getElementById(t[1]),vt[t[0]](n.getElementById(t[1]),t[1],n)):null}))).length;return function(n){for(var e=0;e<r;e++)t[e]&&t[e](n[e].value)}}(n.items,a);return l?(t=function(t,n){return t.map((function(t){return t.e=n(t.e),t}))}(t,e),function(n){l(r(n,t,ct))}):null},"#line":it,points:{f:E,i:x},d:et,r:ut,"#size":q,"#radius":j,_:function(t,n){if(Array.isArray(t))for(var r=0;r<t.length;r++)this[t[r]]=n;else this[t]=n}},gt=function(){function t(r){n(this,t),this.list=r,this.length=r.length}return e(t,[{key:"setAttribute",value:function(t,n){for(var r=this.list,e=0;e<this.length;e++)r[e].setAttribute(t,n)}},{key:"removeAttribute",value:function(t){for(var n=this.list,r=0;r<this.length;r++)n[r].removeAttribute(t)}},{key:"style",value:function(t,n){for(var r=this.list,e=0;e<this.length;e++)r[e].style[t]=n}}]),t}(),mt=/-./g,pt=function(t,n){return n.toUpperCase()};function bt(t){return"function"==typeof t?t:y}function wt(t){return t?"function"==typeof t?t:Array.isArray(t)?function(t){var n=arguments.length>1&&void 0!==arguments[1]?arguments[1]:o;if(!Array.isArray(t))return n;switch(t.length){case 1:return c(t[0])||n;case 2:return c(t[0],t[1])||n;case 4:return l(t[0],t[1],t[2],t[3])||n}return n}(t,null):function(t,n){var r=arguments.length>2&&void 0!==arguments[2]?arguments[2]:o;switch(t){case"linear":return o;case"steps":return c(n.steps||1,n.jump||0)||r;case"bezier":case"cubic-bezier":return l(n.x1||0,n.y1||0,n.x2||0,n.y2||0)||r}return r}(t.type,t.value,null):null}function At(t,n,r){var e=arguments.length>3&&void 0!==arguments[3]&&arguments[3],i=n.length-1;if(t<=n[0].t)return e?[0,0,n[0].v]:n[0].v;if(t>=n[i].t)return e?[i,1,n[i].v]:n[i].v;var u,o=n[0],a=null;for(u=1;u<=i;u++){if(!(t>n[u].t)){a=n[u];break}o=n[u]}return null==a?e?[i,1,n[i].v]:n[i].v:o.t===a.t?e?[u,1,a.v]:a.v:(t=(t-o.t)/(a.t-o.t),o.e&&(t=o.e(t)),e?[u,t,r(t,o.v,a.v)]:r(t,o.v,a.v))}function xt(t,n){var r=arguments.length>2&&void 0!==arguments[2]?arguments[2]:null;return t&&t.length?"function"!=typeof n?null:("function"!=typeof r&&(r=null),function(e){var i=At(e,t,n);return null!=i&&r&&(i=r(i)),i}):null}function kt(t,n){return t.t-n.t}function St(n,r,e,i,u){var o,a="@"===e[0],l="#"===e[0],f=dt[e],s=y;switch(a?(o=e.substr(1),e=o.replace(mt,pt)):l&&(e=e.substr(1)),t(f)){case"function":if(s=f(i,u,At,wt,e,a,r,n),l)return s;break;case"string":s=xt(i,bt(f));break;case"object":if((s=xt(i,bt(f.i),f.f))&&"function"==typeof f.u)return f.u(r,s,e,a,n)}return s?function(t,n,r){if(arguments.length>3&&void 0!==arguments[3]&&arguments[3])return t instanceof gt?function(e){return t.style(n,r(e))}:function(e){return t.style[n]=r(e)};if(Array.isArray(n)){var e=n.length;return function(i){var u=r(i);if(null==u)for(var o=0;o<e;o++)t[o].removeAttribute(n);else for(var a=0;a<e;a++)t[a].setAttribute(n,u)}}return function(e){var i=r(e);null==i?t.removeAttribute(n):t.setAttribute(n,i)}}(r,e,s,a):null}function _t(n,r,e,i){if(!i||"object"!==t(i))return null;var u=null,o=null;return Array.isArray(i)?o=function(t){if(!t||!t.length)return null;for(var n=0;n<t.length;n++)t[n].e&&(t[n].e=wt(t[n].e));return t.sort(kt)}(i):(o=i.keys,u=i.data||null),o?St(n,r,e,o,u):null}function Mt(t,n,r){if(!r)return null;var e=[];for(var i in r)if(r.hasOwnProperty(i)){var u=_t(t,n,i,r[i]);u&&e.push(u)}return e.length?e:null}function It(t,n){if(!n.duration||n.duration<0)return null;var r=function(t,n){if(!n)return null;var r=[];if(Array.isArray(n))for(var e=n.length,i=0;i<e;i++){var u=n[i];if(2===u.length){var o=null;if("string"==typeof u[0])o=t.getElementById(u[0]);else if(Array.isArray(u[0])){o=[];for(var a=0;a<u[0].length;a++)if("string"==typeof u[0][a]){var l=t.getElementById(u[0][a]);l&&o.push(l)}o=o.length?1===o.length?o[0]:new gt(o):null}if(o){var f=Mt(t,o,u[1]);f&&(r=r.concat(f))}}}else for(var s in n)if(n.hasOwnProperty(s)){var c=t.getElementById(s);if(c){var v=Mt(t,c,n[s]);v&&(r=r.concat(v))}}return r.length?r:null}(t,n.elements);return r?function(t,n){var r=arguments.length>2&&void 0!==arguments[2]?arguments[2]:1/0,e=arguments.length>3&&void 0!==arguments[3]?arguments[3]:1,i=arguments.length>4&&void 0!==arguments[4]&&arguments[4],u=arguments.length>5&&void 0!==arguments[5]?arguments[5]:1,o=t.length,a=e>0?n:0;i&&r%2==0&&(a=n-a);var l=null;return function(f,s){var c=f%n,v=1+(f-c)/n;s*=e,i&&v%2==0&&(s=-s);var h=!1;if(v>r)c=a,h=!0,-1===u&&(c=e>0?0:n);else if(s<0&&(c=n-c),c===l)return!1;l=c;for(var y=0;y<o;y++)t[y](c);return h}}(r,n.duration,n.iterations||1/0,n.direction||1,!!n.alternate,n.fill||1):null}var Et=function(){function t(r){var e=arguments.length>1&&void 0!==arguments[1]?arguments[1]:{};n(this,t),this._id=0,this._running=!1,this._animations=r,this.direction=e.direction||1,this.speed=e.speed||1,this.fps=e.fps||100,this.offset=e.offset||0}return e(t,[{key:"_start",value:function(){var t=this,n=arguments.length>0&&void 0!==arguments[0]?arguments[0]:0,r=-1/0,e=null,i={},u=function u(o){t._running=!0,null==e&&(e=o);var a=Math.round((o-e+n)*t.speed),l=t.fps?1e3/t.fps:0;if(a>r+l){t.offset=a,r=a;for(var f=t._animations,s=f.length,c=0,v=0;v<s;v++)i[v]?c++:(i[v]=f[v](a,t.direction),i[v]&&c++);if(c===s)return void t._stop()}t._id=window.requestAnimationFrame(u)};this._id=window.requestAnimationFrame(u)}},{key:"_stop",value:function(){this._id&&window.cancelAnimationFrame(this._id),this._running=!1}},{key:"play",value:function(){this._running||this._start(this.offset)}},{key:"stop",value:function(){this._stop(),this.offset=0;var t=this.direction,n=this._animations;requestAnimationFrame((function(){for(var r=0;r<n.length;r++)n[r](0,t)}))}},{key:"restart",value:function(){this._stop(),this.offset=0,this._start()}},{key:"pause",value:function(){this._stop()}},{key:"reverse",value:function(){this.direction=-this.direction}}],[{key:"build",value:function(n){if(!(n=function(t){if(!t||!t.root||!Array.isArray(t.animations))return null;var n=window.document.getElementById(t.root);if(!n)return null;var r=t.animations.map((function(t){return It(n,t)})).filter((function(t){return!!t}));return r.length?{element:n,animations:r,options:t.options||void 0}:null}(n)))return null;var r=n.element,e=n.options||{},i=new t(n.animations,n.options);return function(t,n,r){var e=arguments.length>3&&void 0!==arguments[3]?arguments[3]:null;if("click"===r){return void n.addEventListener("click",(function r(){n.removeEventListener("click",r),t.play()}))}if("hover"===r)return n.addEventListener("mouseenter",(function(){return t.play()})),void n.addEventListener("mouseleave","freeze"===e?function(){return t.pause()}:function(){return t.stop()});t.play()}(i,r,e.start,e.hover),i}}]),t}();return function(){for(var t=0,n=["ms","moz","webkit","o"],r=0;r<n.length&&!window.requestAnimationFrame;++r)window.requestAnimationFrame=window[n[r]+"RequestAnimationFrame"],window.cancelAnimationFrame=window[n[r]+"CancelAnimationFrame"]||window[n[r]+"CancelRequestAnimationFrame"];window.requestAnimationFrame||(window.requestAnimationFrame=function(n){var r=Date.now(),e=Math.max(0,16-(r-t)),i=window.setTimeout((function(){n(r+e)}),e);return t=r+e,i},window.cancelAnimationFrame=window.clearTimeout)}(),Et}));
__SVGATOR_PLAYER__.build({"root":"etdt4ase4u51","animations":[{"duration":5000,"direction":1,"iterations":1,"fill":1,"alternate":false,"elements":{"etdt4ase4u519":{"fill-opacity":[{"t":1000,"v":1},{"t":1300,"v":0.5},{"t":1500,"v":0},{"t":2000,"v":0.5},{"t":2500,"v":1},{"t":3500,"v":1},{"t":3800,"v":0.5},{"t":4000,"v":0},{"t":4500,"v":0.5},{"t":5000,"v":1}]},"etdt4ase4u520":{"fill-opacity":[{"t":510,"v":1},{"t":810,"v":0.5},{"t":1010,"v":0},{"t":1510,"v":0.5},{"t":2010,"v":1},{"t":3000,"v":1},{"t":3300,"v":0.5},{"t":3500,"v":0},{"t":4000,"v":0.5},{"t":4500,"v":1}]},"etdt4ase4u521":{"fill-opacity":[{"t":0,"v":1},{"t":300,"v":0.5},{"t":500,"v":0},{"t":1000,"v":0.5},{"t":1500,"v":1},{"t":2500,"v":1},{"t":2800,"v":0.5},{"t":3000,"v":0},{"t":3500,"v":0.5},{"t":4000,"v":1}]}}}],"options":{"start":"hover","hover":"restart"}})]]></script></svg>